<?xml version="1.0" encoding="UTF-8" standalone="no"?><!DOCTYPE svg PUBLIC "-//W3C//DTD SVG 1.1//EN" "http://www.w3.org/Graphics/SVG/1.1/DTD/svg11.dtd"><svg width="100%" height="100%" viewBox="0 0 120 120" version="1.1" xmlns="http://www.w3.org/2000/svg" xmlns:xlink="http://www.w3.org/1999/xlink" xml:space="preserve" xmlns:serif="http://www.serif.com/" style="fill-rule:evenodd;clip-rule:evenodd;stroke-linejoin:round;stroke-miterlimit:2;"><g><g><g transform="matrix(0.930686,-0,-0,-1,-2.118214,265.910589)"><g transform="matrix(97.001729,0,0,97.001729,42.021982,217.449364)"><path d="M0.227,-0.603l0.098,-0.083l-0.064,0.302l-0.046,-0.043l0.303,0l-0.029,0.135l-0.303,0l0.065,-0.047l-0.072,0.338l-0.178,-0l0.157,-0.738l0.471,0l-0.029,0.135l-0.373,0Z" style="fill:#8f0f9e;fill-rule:nonzero;"/></g><g transform="matrix(97.001729,0,0,97.001729,97.710593,217.449364)"></g></g><g transform="matrix(-0.930686,0,0,1,284.961961,-0)"><g transform="matrix(97.001729,0,0,97.001729,220.178038,71.538775)"><path d="M0.227,-0.603l0.098,-0.083l-0.064,0.302l-0.046,-0.043l0.303,0l-0.029,0.135l-0.303,0l0.065,-0.047l-0.072,0.338l-0.178,-0l0.157,-0.738l0.471,0l-0.029,0.135l-0.373,0Z" style="fill:#8f0f9e;fill-rule:nonzero;"/></g><g transform="matrix(97.001729,0,0,97.001729,275.866649,71.538775)"></g></g></g><g><g transform="matrix(0.930686,-0,-0,-1,-1.912792,265.910589)"><g transform="matrix(97.001729,0,0,97.001729,44.985652,217.449364)"><path d="M0.227,-0.603l0.098,-0.083l-0.064,0.302l-0.046,-0.043l0.303,0l-0.029,0.135l-0.303,0l0.065,-0.047l-0.072,0.338l-0.178,-0l0.157,-0.738l0.471,0l-0.029,0.135l-0.373,0Z" style="fill:#d100e9;fill-rule:nonzero;"/></g><g transform="matrix(97.001729,0,0,97.001729,100.674263,217.449364)"></g></g><g transform="matrix(-0.930686,0,0,1,290.683878,-0)"><g transform="matrix(97.001729,0,0,97.001729,223.141708,71.538775)"><path d="M0.227,-0.603l0.098,-0.083l-0.064,0.302l-0.046,-0.043l0.303,0l-0.029,0.135l-0.303,0l0.065,-0.047l-0.072,0.338l-0.178,-0l0.157,-0.738l0.471,0l-0.029,0.135l-0.373,0Z" style="fill:#d100e9;fill-rule:nonzero;"/></g><g transform="matrix(97.001729,0,0,97.001729,278.830319,71.538775)"></g></g></g></g></svg>